<svg id="_x33_0" enable-background="new 0 0 64 64" height="512" viewBox="0 0 64 64" width="512" xmlns="http://www.w3.org/2000/svg"><g><g><g><path d="m55 19-7.07 7.07c-.84-2.26-2.14-4.29-3.8-5.98-.04-.04-.07-.07-.11-.11l5.98-5.98z" fill="#5cd6b3"/></g><g><path d="m25.2 48.8-8.2 8.2-5-5 8.76-8.76c1.69 1.65 3.37 3.3 4.44 5.56z" fill="#5cd6b3"/></g><g><path d="m20.76 43.24-8.76 8.76-5-5 9.27-9.27c.84 1.69 2.02 3.04 3.28 4.32.4.4.8.8 1.21 1.19z" fill="#ff826e"/></g><g><path d="m50 14-5.98 5.98c-1.71-1.71-3.78-3.06-6.09-3.91l7.07-7.07z" fill="#ff826e"/></g><g><path d="m62 9.07c0 1.88-.74 3.67-2.07 5l-1.93 1.93-10-10 1.93-1.93c1.33-1.33 3.12-2.07 5-2.07 1.95 0 3.72.79 5 2.07s2.07 3.05 2.07 5z" fill="#aab2bd"/></g><g><path d="m17 57-12.71 4.89c-.19.07-.4.11-.6.11-.93 0-1.69-.76-1.69-1.69 0-.2.04-.41.11-.6l4.89-12.71 5 5z" fill="#ccd1d9"/></g><g><path d="m58 16-3 3-5-5-5-5 3-3z" fill="#e6e9ed"/></g><g><path d="m51 33.05c0 1.19.71 2.25 1.8 2.7.01 0 .03.01.04.01 1.09.46 2.35.22 3.19-.62l.75-.75 2.83 2.83-.75.75c-.84.84-1.08 2.1-.62 3.19 0 .01.01.03.01.04.45 1.09 1.51 1.8 2.7 1.8h1.05v4h-1.05c-1.19 0-2.25.71-2.7 1.8 0 .01-.01.03-.01.04-.46 1.09-.22 2.35.62 3.19l.75.75-2.83 2.83-.75-.75c-.84-.84-2.1-1.08-3.19-.62-.01 0-.03.01-.04.01-1.09.45-1.8 1.51-1.8 2.7v1.05h-4v-1.05c0-1.19-.71-2.25-1.8-2.7-.01 0-.03-.01-.04-.01-1.09-.46-2.35-.22-3.19.62l-.75.75-2.53-2.53c.2-.31.31-.68.31-1.08 0-.66-.33-1.26-.83-1.62.97-3.12 3.03-5.15 5.1-7.16-.17.57-.27 1.16-.27 1.78 0 3.31 2.69 6 6 6s6-2.69 6-6-2.69-6-6-6c-.82 0-1.6.17-2.31.46 1.35-1.89 2.31-4.2 2.31-7.46h2z" fill="#ffc729"/></g><g><path d="m49 39c3.31 0 6 2.69 6 6s-2.69 6-6 6-6-2.69-6-6c0-.62.1-1.21.27-1.78v-.01c1.21-1.17 2.42-2.35 3.42-3.75.71-.29 1.49-.46 2.31-.46zm2 6c0-1.1-.9-2-2-2s-2 .9-2 2 .9 2 2 2 2-.9 2-2z" fill="#fcd770"/></g><g><path d="m32 62c-2.35 0-4.4-1.6-4.97-3.88l-.03-.12h10l-.03.12c-.29 1.14-.94 2.11-1.82 2.8-.87.68-1.97 1.08-3.15 1.08z" fill="#aab2bd"/></g><g><path d="m37 54c1.1 0 2 .9 2 2 0 .55-.22 1.05-.59 1.41-.36.37-.86.59-1.41.59h-10c-1.1 0-2-.9-2-2 0-.55.22-1.05.59-1.41.36-.37.86-.59 1.41-.59z" fill="#ccd1d9"/></g><g><path d="m39 52c0 .4-.11.77-.31 1.08-.08.12-.18.23-.28.33-.36.37-.86.59-1.41.59h-10c-1.1 0-2-.9-2-2 0-.55.22-1.05.59-1.41.07-.08.15-.15.24-.21.33-.24.73-.38 1.17-.38h5 5c.44 0 .84.14 1.17.38.5.36.83.96.83 1.62z" fill="#ccd1d9"/></g><g><path d="m47.93 26.07c-.84-2.26-2.14-4.29-3.8-5.98-.04-.04-.07-.07-.11-.11-1.71-1.71-3.78-3.06-6.09-3.91-1.75-.66-3.63-1.03-5.6-1.07h-.01c.44.91.68 1.92.68 3 0 .78-.13 1.54-.37 2.24v.01c.43-.16.89-.25 1.37-.25 2.21 0 4 1.79 4 4s-1.79 4-4 4h-6-12.53c-.31 1.28-.47 2.62-.47 4 0 2.34.49 4.18 1.27 5.73.84 1.69 2.02 3.04 3.28 4.32.4.4.8.8 1.21 1.19 1.69 1.65 3.37 3.3 4.44 5.56.25.49.46 1.02.63 1.58.33-.24.73-.38 1.17-.38h5 5c.44 0 .84.14 1.17.38.97-3.12 3.03-5.15 5.1-7.16v-.01c1.21-1.17 2.42-2.35 3.42-3.75 1.35-1.89 2.31-4.2 2.31-7.46 0-2.09-.38-4.09-1.07-5.93z" fill="#ffeaa7"/></g><g><path d="m23.3 11.54c.83-.35 1.74-.54 2.7-.54 2.8 0 5.2 1.63 6.32 4 .44.91.68 1.92.68 3 0 .78-.13 1.54-.37 2.24v.01c.43-.16.89-.25 1.37-.25 2.21 0 4 1.79 4 4s-1.79 4-4 4h-6-12.53-8.47c-2.76 0-5-2.24-5-5 0-2.6 1.98-4.73 4.52-4.97v-.01c-.34-.94-.52-1.96-.52-3.02 0-4.97 4.03-9 9-9 3.73 0 6.93 2.27 8.29 5.5z" fill="#e6e9ed"/></g></g><g><path d="m49 48c1.654 0 3-1.346 3-3s-1.346-3-3-3-3 1.346-3 3 1.346 3 3 3zm0-4c.551 0 1 .448 1 1s-.449 1-1 1-1-.448-1-1 .449-1 1-1z"/><path d="m59.16 40.778c-.303-.726-.142-1.551.409-2.103l1.455-1.456-4.244-4.244-1.457 1.456c-.551.552-1.377.712-2.141.392-.718-.296-1.182-.99-1.182-1.768v-2.055h-2.051c-.091-1.613-.39-3.172-.886-4.649l11.572-11.572c1.525-1.525 2.365-3.552 2.365-5.708 0-4.45-3.621-8.071-8.071-8.071-2.156 0-4.183.84-5.707 2.364l-11.56 11.561c-1.495-.502-3.08-.794-4.717-.881-1.38-2.411-3.973-4.044-6.945-4.044-.761 0-1.495.114-2.194.313-1.726-3.245-5.079-5.313-8.806-5.313-5.514 0-10 4.486-10 10 0 .766.094 1.52.265 2.258-2.465.746-4.265 3.037-4.265 5.742 0 3.309 2.691 6 6 6h7.254c-.166.989-.254 1.993-.254 3 0 2.201.407 3.992 1.064 5.522l-8.921 8.922-4.964 12.906c-.119.308-.179.632-.179.963 0 1.482 1.206 2.687 2.687 2.687.331 0 .655-.061.964-.179l12.906-4.964 6.523-6.524c-.049.215-.08.437-.08.667 0 .771.301 1.468.78 2-.48.532-.78 1.229-.78 2 0 1.39.955 2.552 2.24 2.89.852 2.44 3.134 4.11 5.76 4.11s4.908-1.67 5.76-4.11c1.285-.338 2.24-1.5 2.24-2.89 0-.075-.017-.145-.022-.218l1.242 1.242 1.457-1.456c.551-.552 1.374-.713 2.14-.394.718.299 1.183.993 1.183 1.771v2.055h6v-2.055c0-.778.465-1.473 1.222-1.786.726-.302 1.551-.143 2.102.409l1.456 1.456 4.244-4.244-1.455-1.456c-.551-.552-.712-1.377-.393-2.141.297-.718.991-1.183 1.769-1.183h2.055v-6h-2.055c-.778 0-1.472-.465-1.785-1.222zm-14.984 2.948c1.091-1.065 2.184-2.153 3.127-3.411.544-.198 1.11-.315 1.697-.315 2.757 0 5 2.243 5 5s-2.243 5-5 5-5-2.243-5-5c0-.433.067-.859.176-1.274zm1.201-23.688 4.623-4.624 3.586 3.586-5.341 5.341c-.749-1.572-1.717-3.018-2.868-4.303zm1.037-11.038 1.586-1.586 8.586 8.586-1.586 1.586zm8.515-6c3.347 0 6.071 2.724 6.071 6.071 0 1.621-.631 3.146-1.778 4.293l-1.222 1.222-8.586-8.586 1.222-1.222c1.147-1.146 2.671-1.778 4.293-1.778zm-9.929 7.414 3.586 3.586-4.621 4.621c-1.284-1.152-2.729-2.121-4.301-2.871zm3 21.586c0 5.203-2.62 7.759-5.394 10.464-1.91 1.863-3.872 3.789-5.014 6.596-.191-.039-.389-.06-.592-.06h-4v-5c0-1.654-1.346-3-3-3h-2c-.551 0-1-.448-1-1s.449-1 1-1h10c1.654 0 3-1.346 3-3s-1.346-3-3-3h-8c-.551 0-1-.448-1-1v-3h5c2.757 0 5-2.243 5-5s-2.243-5-5-5c-.028 0-.054.008-.082.008.043-.334.082-.668.082-1.008 0-.654-.088-1.287-.236-1.896 7.972.888 14.236 7.73 14.236 15.896zm-22 20c0-.552.449-1 1-1h10c.551 0 1 .448 1 1s-.449 1-1 1h-10c-.551 0-1-.448-1-1zm-12.586 0 7.351-7.351c1.23 1.22 2.372 2.454 3.214 3.957l-6.979 6.98zm-10.414-29c0-2.206 1.794-4 4-4s4 1.794 4 4h2c0-3.222-2.555-5.852-5.744-5.987-.17-.654-.256-1.329-.256-2.013 0-4.411 3.589-8 8-8 2.925 0 5.565 1.59 6.969 4.101-2.132 1.251-3.638 3.454-3.919 6.025-1.746.43-3.05 1.997-3.05 3.874h2c0-1.103.897-2 2-2s2 .897 2 2h2c0-1.835-1.248-3.368-2.935-3.838.41-2.912 2.911-5.162 5.935-5.162 3.309 0 6 2.691 6 6 0 .526-.086 1.041-.22 1.543-1.64.821-2.78 2.501-2.78 4.457h2c0-1.654 1.346-3 3-3s3 1.346 3 3-1.346 3-3 3h-27c-2.206 0-4-1.794-4-4zm24 6v3c0 1.654 1.346 3 3 3h8c.551 0 1 .448 1 1s-.449 1-1 1h-10c-1.654 0-3 1.346-3 3s1.346 3 3 3h2c.551 0 1 .448 1 1v5h-4c-.203 0-.401.021-.592.06-1.142-2.807-3.104-4.733-5.014-6.596-2.774-2.705-5.394-5.261-5.394-10.464 0-1.011.121-2.013.308-3zm-7.663 14.249-7.337 7.337-3.586-3.586 7.63-7.63c.939 1.474 2.103 2.704 3.293 3.879zm-11.956 5.546 7.824 7.824-6.624 2.548-3.748-3.748zm-3.447 12.159c-.433.168-.934-.177-.934-.641 0-.085.016-.168.045-.246l1.002-2.606 2.491 2.491zm28.066.046c-1.477 0-2.794-.786-3.524-2h7.048c-.73 1.214-2.047 2-3.524 2zm5-4h-10c-.551 0-1-.448-1-1s.449-1 1-1h10c.551 0 1 .448 1 1s-.449 1-1 1zm24-11h-.055c-1.591 0-3.011.95-3.631 2.452-.616 1.477-.286 3.159.84 4.286l.042.042-1.416 1.416-.042-.042c-1.128-1.128-2.812-1.459-4.319-.827-1.469.608-2.419 2.027-2.419 3.618v.055h-2v-.055c0-1.591-.95-3.011-2.452-3.632-1.479-.617-3.161-.286-4.287.841l-.042.042-1.355-1.355c.08-.269.136-.547.136-.841 0-.71-.258-1.354-.672-1.869.622-1.679 1.597-3.022 2.732-4.262.43 3.45 3.375 6.131 6.94 6.131 3.86 0 7-3.141 7-7s-3.14-7-7-7c-.098 0-.193.01-.29.014.677-1.405 1.142-3.034 1.259-5.014h.031v.055c0 1.591.95 3.012 2.451 3.631 1.476.618 3.16.288 4.287-.84l.042-.042 1.416 1.416-.042.042c-1.126 1.127-1.456 2.81-.827 4.318.607 1.47 2.027 2.42 3.618 2.42h.055z"/></g></g></svg>