<?xml version="1.0" encoding="iso-8859-1"?>
<!-- Generator: Adobe Illustrator 16.0.0, SVG Export Plug-In . SVG Version: 6.00 Build 0)  -->
<!DOCTYPE svg PUBLIC "-//W3C//DTD SVG 1.1//EN" "http://www.w3.org/Graphics/SVG/1.1/DTD/svg11.dtd">
<svg version="1.1" id="Capa_1" xmlns="http://www.w3.org/2000/svg" xmlns:xlink="http://www.w3.org/1999/xlink" x="0px" y="0px"
	viewBox="0 0 486.805 486.805" style="enable-background:new 0 0 486.805 486.805;"
	 xml:space="preserve">
<g>
	<path d="M261.397,17.983c-88.909,0-167.372,51.302-203.909,129.073L32.072,94.282L0,109.73l52.783,109.565l109.565-52.786
		l-15.451-32.066L89.82,161.934c30.833-65.308,96.818-108.353,171.577-108.353c104.668,0,189.818,85.154,189.818,189.821
		s-85.15,189.824-189.818,189.824c-61.631,0-119.663-30.109-155.228-80.539l-29.096,20.521
		c42.241,59.87,111.143,95.613,184.324,95.613c124.286,0,225.407-101.122,225.407-225.419S385.684,17.983,261.397,17.983z"/>
</g>
<g>
</g>
<g>
</g>
<g>
</g>
<g>
</g>
<g>
</g>
<g>
</g>
<g>
</g>
<g>
</g>
<g>
</g>
<g>
</g>
<g>
</g>
<g>
</g>
<g>
</g>
<g>
</g>
<g>
</g>
</svg>
